<svg xmlns="http://www.w3.org/2000/svg" xmlns:xlink="http://www.w3.org/1999/xlink" width="100%" height="100%" viewBox="0 0 223 98" fill-rule="evenodd"><path d="M208.886 77.518c0-9.935-8.065-18-18-18h-159c-9.934 0-18 8.065-18 18s8.066 18 18 18h159c9.935 0 18-8.066 18-18z" fill="none" stroke="#ff7a7a"/><g fill="#ff7a7a" fill-rule="nonzero"><path d="M120.6 83.7l-4.988-5c.466-.975.735-2.063.735-3.216a7.48 7.48 0 0 0-7.476-7.475c-4.128 0-7.475 3.347-7.475 7.475a7.48 7.48 0 0 0 7.475 7.476c1.154 0 2.24-.27 3.217-.735l4.99 4.988a2.49 2.49 0 1 0 3.523-3.523zm-17.543-8.206c0-3.212 2.603-5.814 5.814-5.814s5.814 2.602 5.814 5.814-2.602 5.814-5.814 5.814-5.814-2.603-5.814-5.814zm16.37 10.555c-.156.155-.367.243-.588.243s-.43-.088-.587-.243l-4.717-4.718a7.59 7.59 0 0 0 1.175-1.175l4.717 4.718c.155.156.243.367.243.587s-.088.432-.243.588z"/><use xlink:href="#B"/><use xlink:href="#C"/><use xlink:href="#D"/><use xlink:href="#E"/><use xlink:href="#F"/><use xlink:href="#G"/><use xlink:href="#H"/><use xlink:href="#I"/><use xlink:href="#J"/><use xlink:href="#K"/><use xlink:href="#L"/><use xlink:href="#M"/><use xlink:href="#N"/><use xlink:href="#O"/><use xlink:href="#P"/></g><g fill="none" stroke="#ff7a7a"><use xlink:href="#B"/><use xlink:href="#C"/><use xlink:href="#D"/><use xlink:href="#E"/><use xlink:href="#F"/><use xlink:href="#G"/><use xlink:href="#H"/><use xlink:href="#I"/><use xlink:href="#J"/><use xlink:href="#K"/><use xlink:href="#L"/><use xlink:href="#M"/><use xlink:href="#N"/><use xlink:href="#O"/><use xlink:href="#P"/></g><defs ><path id="B" d="M3.07 10.44c.852-.516 1.84-.898 2.96-1.144 1.144-.247 2.333-.37 3.566-.37 1.167 0 2.098.157 2.793.47.718.315 1.256.73 1.615 1.245.38.494.628 1.043.74 1.65a8.33 8.33 0 0 1 .202 1.817l-.1 3.937-.1 3.633.1 2.356c.067.74.19 1.424.37 2.052h-1.985l-.706-2.355h-.17a5.68 5.68 0 0 1-.774.942c-.29.292-.65.56-1.076.808-.426.224-.92.414-1.48.57s-1.2.236-1.917.236-1.39-.112-2.02-.336a4.87 4.87 0 0 1-1.582-.943c-.448-.426-.807-.93-1.076-1.514-.247-.583-.37-1.245-.37-1.985 0-.987.2-1.805.605-2.456.404-.673.965-1.2 1.683-1.58.74-.404 1.615-.684 2.624-.84 1.032-.18 2.165-.27 3.398-.27h.91c.314 0 .628.023.942.068l.1-1.817c0-1.234-.247-2.098-.74-2.59s-1.4-.74-2.69-.74c-.382 0-.797.033-1.245.1-.426.045-.875.123-1.346.235a8.77 8.77 0 0 0-1.312.37c-.404.135-.763.292-1.077.47l-.84-2.018zM7.85 23.932c.628 0 1.19-.08 1.682-.236.494-.18.92-.392 1.28-.64.36-.27.65-.56.874-.875.247-.314.427-.617.54-.908V18.48l-1.918-.067a15.65 15.65 0 0 0-2.053.134c-.65.068-1.233.213-1.75.438-.494.202-.897.493-1.21.875-.292.358-.438.818-.438 1.38a2.54 2.54 0 0 0 .841 1.952c.56.493 1.28.74 2.154.74z"/><path id="C" d="M21.782 9.195v9.59c0 .875.044 1.65.134 2.32.112.65.292 1.2.538 1.65a2.49 2.49 0 0 0 1.01.976c.426.224.964.336 1.615.336.605 0 1.144-.09 1.615-.27.47-.202.886-.47 1.245-.807.38-.337.706-.718.976-1.144a6.96 6.96 0 0 0 .706-1.413V9.195h2.692V21.24l.067 2.524c.067.852.168 1.603.303 2.254h-1.85l-.673-2.658h-.168c-.516.875-1.21 1.604-2.086 2.187s-1.985.875-3.33.875c-.897 0-1.693-.113-2.39-.337-.673-.202-1.245-.572-1.716-1.1-.448-.54-.796-1.256-1.043-2.154-.224-.92-.336-2.074-.336-3.465V9.195h2.692z"/><path id="D" d="M34.603 9.195h2.624v-3.33L39.92 5.1v4.105h4.576v2.355H39.92v9.32c0 1.166.146 1.996.437 2.5.292.47.786.706 1.48.706.583 0 1.077-.056 1.48-.168l1.346-.505.606 2.053c-.606.29-1.268.527-1.985.706s-1.492.27-2.322.27c-1.368 0-2.333-.382-2.894-1.144-.56-.785-.84-2.086-.84-3.903V11.55h-2.624V9.195z"/><path id="E" d="M46.25 17.606c0-2.848.628-5.024 1.884-6.527 1.28-1.526 3.107-2.288 5.484-2.288 1.256 0 2.344.213 3.264.64a5.73 5.73 0 0 1 2.322 1.783c.605.763 1.054 1.694 1.345 2.793.292 1.077.438 2.277.438 3.6 0 2.85-.64 5.036-1.918 6.56-1.256 1.503-3.073 2.255-5.45 2.255-1.256 0-2.355-.202-3.297-.606-.92-.426-1.682-1.02-2.288-1.783-.606-.785-1.054-1.716-1.346-2.793-.29-1.1-.437-2.3-.437-3.634zm2.792 0c0 .853.08 1.67.236 2.456.18.786.45 1.47.807 2.053s.83 1.054 1.414 1.413 1.29.538 2.12.538c3.05.023 4.576-2.13 4.576-6.46 0-.875-.09-1.705-.27-2.5-.157-.785-.415-1.47-.774-2.052s-.83-1.043-1.413-1.38c-.583-.358-1.3-.538-2.12-.538-3.05-.022-4.576 2.13-4.576 6.46z"/><path id="F" d="M79.9 25.042c-.673.516-1.526.875-2.557 1.077s-2.13.303-3.298.303c-1.413 0-2.736-.236-3.97-.707-1.234-.493-2.31-1.234-3.23-2.22s-1.65-2.243-2.187-3.768c-.54-1.548-.808-3.376-.808-5.484 0-2.2.292-4.06.875-5.586.606-1.547 1.39-2.804 2.355-3.768.987-.987 2.086-1.705 3.298-2.154a10.59 10.59 0 0 1 3.701-.672c1.346 0 2.445.078 3.297.235.853.135 1.582.325 2.187.572L78.9 5.325c-1.076-.516-2.613-.774-4.61-.774-.92 0-1.828.17-2.726.505s-1.704.886-2.422 1.65c-.696.762-1.256 1.76-1.683 2.994s-.64 2.748-.64 4.543c0 1.615.202 3.028.606 4.24s.953 2.22 1.648 3.028c.718.808 1.548 1.413 2.5 1.817a8.02 8.02 0 0 0 3.129.606c1 0 1.885-.1 2.625-.303.763-.202 1.402-.46 1.918-.774l.673 2.187z"/><path id="G" d="M80.98 17.606c0-2.848.628-5.024 1.884-6.527 1.28-1.526 3.107-2.288 5.484-2.288 1.256 0 2.344.213 3.264.64a5.73 5.73 0 0 1 2.322 1.783c.605.763 1.054 1.694 1.346 2.793.29 1.077.437 2.277.437 3.6 0 2.85-.64 5.036-1.918 6.56-1.256 1.503-3.073 2.255-5.45 2.255-1.256 0-2.355-.202-3.297-.606-.92-.426-1.682-1.02-2.288-1.783-.606-.785-1.054-1.716-1.346-2.793-.29-1.1-.437-2.3-.437-3.634zm2.792 0c0 .853.08 1.67.236 2.456.18.786.45 1.47.807 2.053s.83 1.054 1.414 1.413 1.29.538 2.12.538c3.05.023 4.576-2.13 4.576-6.46 0-.875-.09-1.705-.27-2.5-.157-.785-.415-1.47-.774-2.052s-.83-1.043-1.413-1.38c-.583-.358-1.3-.538-2.12-.538-3.05-.022-4.576 2.13-4.576 6.46z"/><path id="H" d="M109.148 26.018v-9.522c0-.897-.045-1.67-.135-2.322-.067-.673-.213-1.233-.437-1.682a2.24 2.24 0 0 0-.976-1.009c-.404-.225-.942-.337-1.615-.337-1.032 0-1.895.314-2.59.942-.673.628-1.144 1.413-1.413 2.355v11.575H99.29V9.195h1.885l.504 2.052h.135a7.74 7.74 0 0 1 2.086-1.75c.807-.47 1.85-.706 3.13-.706 1.077 0 1.952.213 2.624.64.696.404 1.234 1.122 1.615 2.154a5.49 5.49 0 0 1 2.12-2.053c.92-.493 1.952-.74 3.096-.74.942 0 1.738.112 2.39.336.65.202 1.188.572 1.615 1.11s.73 1.267.908 2.187c.202.92.303 2.086.303 3.5v10.094h-2.692V15.9c0-.807-.045-1.503-.134-2.086-.068-.605-.225-1.1-.47-1.48-.225-.404-.55-.696-.976-.875-.404-.202-.942-.303-1.615-.303-1.122 0-1.997.314-2.625.942s-1.076 1.526-1.346 2.692v11.238h-2.69z"/><path id="I" d="M125.92 9.195h1.85l.505 2.018h.134c.516-.785 1.178-1.38 1.985-1.783.83-.426 1.772-.64 2.827-.64 2.243 0 3.914.662 5.013 1.985s1.65 3.488 1.65 6.494c0 1.413-.19 2.69-.572 3.835-.36 1.122-.875 2.075-1.548 2.86s-1.492 1.39-2.456 1.817c-.942.427-1.997.64-3.163.64-.83 0-1.492-.056-1.985-.17-.47-.09-.987-.258-1.548-.504v6.998h-2.692V9.195zm6.797 1.95c-1.144 0-2.053.303-2.726.91-.65.583-1.1 1.48-1.38 2.69v8.345c.404.314.864.56 1.38.74.516.157 1.2.235 2.053.235 1.548 0 2.77-.572 3.667-1.716.92-1.166 1.38-2.87 1.38-5.114 0-.92-.08-1.75-.236-2.5-.157-.762-.415-1.402-.774-1.918a3.42 3.42 0 0 0-1.345-1.244c-.54-.292-1.212-.438-2.02-.438z"/><path id="J" d="M146.446 21.88c0 .785.135 1.346.404 1.683s.65.504 1.144.504a7.14 7.14 0 0 0 .942-.067c.336-.045.718-.146 1.144-.303l.303 2.12c-.36.18-.864.325-1.514.437-.628.113-1.178.17-1.65.17-1.01 0-1.84-.28-2.5-.842-.65-.583-.976-1.56-.976-2.927V2.465h2.692V21.88z"/><path id="K" d="M164.884 24.672c-.673.538-1.525.965-2.557 1.28-1.01.314-2.086.47-3.23.47-1.28 0-2.39-.202-3.33-.606a6.15 6.15 0 0 1-2.322-1.783c-.605-.785-1.054-1.716-1.346-2.793s-.437-2.288-.437-3.634c0-2.87.64-5.058 1.918-6.56s3.107-2.254 5.484-2.254c.763 0 1.526.1 2.288.27.763.157 1.447.47 2.053.942s1.1 1.144 1.48 2.02c.38.852.572 1.985.572 3.398 0 .74-.067 1.56-.202 2.456h-10.8c0 .987.1 1.862.303 2.625s.515 1.413.942 1.95c.426.516.975.92 1.648 1.212.696.27 1.537.403 2.524.403.762 0 1.525-.134 2.288-.403s1.334-.584 1.716-.942l1.01 1.95zm-5.787-13.526c-1.324 0-2.39.348-3.197 1.043-.785.696-1.256 1.884-1.413 3.567h8.345c0-1.705-.326-2.894-.976-3.567-.65-.695-1.57-1.043-2.76-1.043z"/><path id="L" d="M166.796 9.195h2.624v-3.33l2.692-.774v4.105h4.576v2.355h-4.576v9.32c0 1.166.146 1.996.437 2.5.292.47.785.706 1.48.706.583 0 1.076-.056 1.48-.168l1.346-.505.606 2.053c-.606.29-1.268.527-1.986.706s-1.49.27-2.32.27c-1.368 0-2.333-.382-2.894-1.144-.56-.785-.84-2.086-.84-3.903V11.55h-2.624V9.195z"/><path id="M" d="M191.665 24.672c-.673.538-1.526.965-2.558 1.28-1.01.314-2.086.47-3.23.47-1.278 0-2.39-.202-3.33-.606-.942-.426-1.716-1.02-2.32-1.783-.606-.785-1.054-1.716-1.346-2.793s-.437-2.288-.437-3.634c0-2.87.64-5.058 1.917-6.56s3.107-2.254 5.485-2.254a9.99 9.99 0 0 1 2.288.269c.762.157 1.446.47 2.052.942s1.1 1.144 1.48 2.02c.38.852.572 1.985.572 3.398 0 .74-.068 1.56-.202 2.456h-10.8c0 .987.1 1.862.303 2.625s.516 1.413.942 1.95c.426.516.976.92 1.65 1.212.695.27 1.536.403 2.523.403.763 0 1.526-.134 2.288-.403s1.335-.584 1.716-.942l1 1.95zm-5.788-13.526c-1.323 0-2.39.348-3.196 1.043-.785.696-1.256 1.884-1.413 3.567h8.344c0-1.705-.325-2.894-.976-3.567-.65-.695-1.57-1.043-2.76-1.043z"/><path id="N" d="M194.855 24.47c0-.606.168-1.077.504-1.413.36-.36.83-.538 1.413-.538.606 0 1.088.18 1.447.538.36.336.54.807.54 1.413 0 .583-.18 1.054-.54 1.413s-.84.54-1.447.54c-.583 0-1.054-.18-1.413-.54-.336-.36-.504-.83-.504-1.413z"/><path id="O" d="M202.858 9.195h2.692v17.73c0 2.086-.36 3.645-1.077 4.677s-1.862 1.548-3.432 1.548c-.18 0-.348-.01-.505-.034-.157 0-.325-.01-.504-.033v-2.288c.628 0 1.12-.1 1.48-.303.38-.18.673-.47.875-.875s.325-.92.37-1.548c.067-.605.1-1.323.1-2.153V9.195zm-.572-5.115c0-.516.168-.953.505-1.312a1.77 1.77 0 0 1 1.346-.572 1.88 1.88 0 0 1 1.379.572c.38.36.572.796.572 1.312s-.19.942-.572 1.28-.84.505-1.38.505-.987-.17-1.346-.505c-.337-.337-.505-.763-.505-1.28z"/><path id="P" d="M218.02 21.442c0-.673-.202-1.2-.605-1.58s-.91-.696-1.515-.943c-.583-.27-1.233-.515-1.95-.74-.695-.247-1.346-.55-1.952-.908a5.36 5.36 0 0 1-1.48-1.447c-.404-.583-.606-1.368-.606-2.355 0-1.615.46-2.793 1.38-3.533.92-.763 2.198-1.144 3.836-1.144 1.21 0 2.22.112 3.028.336.83.202 1.547.45 2.153.74l-.64 2.22c-.516-.247-1.144-.46-1.884-.64-.718-.202-1.492-.303-2.322-.303-.987 0-1.716.168-2.187.505-.45.336-.673.92-.673 1.75 0 .584.202 1.043.606 1.38.403.314.897.606 1.48.875l1.952.74c.717.247 1.368.572 1.95.976.606.403 1.1.92 1.514 1.547.404.606.606 1.414.606 2.423 0 .718-.124 1.39-.37 2.02-.225.628-.583 1.166-1.077 1.615s-1.1.796-1.85 1.043c-.718.27-1.57.404-2.558.404-1.278 0-2.366-.124-3.263-.37s-1.65-.538-2.255-.874l.808-2.288c.516.29 1.19.56 2.02.807a8.8 8.8 0 0 0 2.523.37c.965 0 1.76-.2 2.39-.572s.942-1.065.942-2.052z"/></defs></svg>