<?xml version="1.0" encoding="UTF-8" standalone="no"?><!DOCTYPE svg PUBLIC "-//W3C//DTD SVG 1.1//EN" "http://www.w3.org/Graphics/SVG/1.1/DTD/svg11.dtd"><svg width="100%" height="100%" viewBox="0 0 223 98" version="1.1" xmlns="http://www.w3.org/2000/svg" xmlns:xlink="http://www.w3.org/1999/xlink" xml:space="preserve" xmlns:serif="http://www.serif.com/" style="fill-rule:evenodd;clip-rule:evenodd;"><g><g><path d="M208.886,77.518c0,-9.935 -8.065,-18 -18,-18l-159,0c-9.934,0 -18,8.065 -18,18c0,9.934 8.066,18 18,18l159,0c9.935,0 18,-8.066 18,-18Z" style="fill:none;stroke:#ff7a7a;stroke-width:1px;"/><path d="M120.59,83.699l-4.988,-4.99c0.466,-0.975 0.735,-2.063 0.735,-3.216c0,-4.128 -3.347,-7.475 -7.476,-7.475c-4.128,0 -7.475,3.347 -7.475,7.475c0,4.129 3.347,7.476 7.475,7.476c1.154,0 2.241,-0.27 3.217,-0.735l4.989,4.988c0.972,0.974 2.551,0.974 3.523,0c0.974,-0.973 0.974,-2.552 0,-3.523Zm-17.543,-8.206c0,-3.212 2.603,-5.814 5.814,-5.814c3.212,0 5.814,2.602 5.814,5.814c0,3.21 -2.602,5.814 -5.814,5.814c-3.211,0.001 -5.814,-2.603 -5.814,-5.814Zm16.369,10.555c-0.156,0.155 -0.367,0.243 -0.588,0.243c-0.22,0 -0.431,-0.088 -0.587,-0.243l-4.717,-4.718c0.433,-0.347 0.827,-0.741 1.175,-1.175l4.717,4.718c0.155,0.156 0.243,0.367 0.243,0.587c0,0.221 -0.088,0.432 -0.243,0.588Z" style="fill:#ff7a7a;fill-rule:nonzero;"/></g><g><path d="M3.071,10.44c0.852,-0.516 1.839,-0.898 2.961,-1.144c1.144,-0.247 2.333,-0.371 3.566,-0.371c1.167,0 2.098,0.157 2.793,0.471c0.718,0.315 1.256,0.729 1.615,1.245c0.381,0.494 0.628,1.043 0.74,1.649c0.135,0.606 0.202,1.211 0.202,1.817c0,1.346 -0.034,2.658 -0.101,3.937c-0.067,1.278 -0.101,2.489 -0.101,3.633c0,0.83 0.034,1.615 0.101,2.356c0.067,0.74 0.191,1.424 0.37,2.052l-1.985,0l-0.706,-2.355l-0.169,0c-0.202,0.314 -0.459,0.628 -0.774,0.942c-0.291,0.292 -0.65,0.561 -1.076,0.808c-0.426,0.224 -0.92,0.414 -1.481,0.571c-0.56,0.158 -1.2,0.236 -1.917,0.236c-0.718,0 -1.391,-0.112 -2.019,-0.336c-0.606,-0.225 -1.133,-0.539 -1.582,-0.943c-0.448,-0.426 -0.807,-0.93 -1.076,-1.514c-0.247,-0.583 -0.37,-1.245 -0.37,-1.985c0,-0.987 0.201,-1.805 0.605,-2.456c0.404,-0.673 0.965,-1.2 1.683,-1.581c0.74,-0.404 1.615,-0.684 2.624,-0.841c1.032,-0.18 2.165,-0.27 3.398,-0.27c0.314,0 0.617,0 0.909,0c0.314,0 0.628,0.023 0.942,0.068c0.067,-0.673 0.101,-1.279 0.101,-1.817c0,-1.234 -0.247,-2.098 -0.741,-2.591c-0.493,-0.494 -1.39,-0.74 -2.691,-0.74c-0.382,0 -0.797,0.033 -1.245,0.101c-0.426,0.045 -0.875,0.123 -1.346,0.235c-0.449,0.09 -0.886,0.213 -1.312,0.37c-0.404,0.135 -0.763,0.292 -1.077,0.471l-0.841,-2.018Zm4.778,13.492c0.628,0 1.189,-0.079 1.682,-0.236c0.494,-0.179 0.92,-0.392 1.279,-0.639c0.359,-0.269 0.65,-0.561 0.874,-0.875c0.247,-0.314 0.427,-0.617 0.539,-0.908l0,-2.793c-0.314,-0.022 -0.64,-0.034 -0.976,-0.034c-0.314,-0.022 -0.628,-0.033 -0.942,-0.033c-0.695,0 -1.38,0.045 -2.053,0.134c-0.65,0.068 -1.233,0.213 -1.749,0.438c-0.494,0.202 -0.897,0.493 -1.211,0.875c-0.292,0.358 -0.438,0.818 -0.438,1.379c0,0.785 0.281,1.436 0.841,1.952c0.561,0.493 1.279,0.74 2.154,0.74Z" style="fill:#ff7a7a;fill-rule:nonzero;"/><path d="M21.782,9.195l0,9.589c0,0.875 0.044,1.649 0.134,2.321c0.112,0.651 0.292,1.201 0.538,1.649c0.247,0.426 0.584,0.752 1.01,0.976c0.426,0.224 0.964,0.336 1.615,0.336c0.605,0 1.144,-0.089 1.615,-0.269c0.471,-0.202 0.886,-0.471 1.245,-0.807c0.381,-0.337 0.706,-0.718 0.976,-1.144c0.291,-0.449 0.527,-0.92 0.706,-1.413l0,-11.238l2.692,0l0,12.045c0,0.808 0.022,1.649 0.067,2.524c0.067,0.852 0.168,1.603 0.303,2.254l-1.851,0l-0.673,-2.658l-0.168,0c-0.516,0.875 -1.211,1.604 -2.086,2.187c-0.875,0.583 -1.985,0.875 -3.331,0.875c-0.897,0 -1.693,-0.113 -2.389,-0.337c-0.673,-0.202 -1.245,-0.572 -1.716,-1.11c-0.448,-0.539 -0.796,-1.256 -1.043,-2.154c-0.224,-0.919 -0.336,-2.074 -0.336,-3.465l0,-10.161l2.692,0Z" style="fill:#ff7a7a;fill-rule:nonzero;"/><path d="M34.603,9.195l2.624,0l0,-3.331l2.692,-0.774l0,4.105l4.576,0l0,2.355l-4.576,0l0,9.32c0,1.166 0.146,1.996 0.437,2.49c0.292,0.471 0.786,0.706 1.481,0.706c0.583,0 1.077,-0.056 1.48,-0.168c0.404,-0.134 0.853,-0.303 1.346,-0.505l0.606,2.053c-0.606,0.291 -1.268,0.527 -1.985,0.706c-0.718,0.18 -1.492,0.27 -2.322,0.27c-1.368,0 -2.333,-0.382 -2.894,-1.144c-0.56,-0.785 -0.841,-2.086 -0.841,-3.903l0,-9.825l-2.624,0l0,-2.355Z" style="fill:#ff7a7a;fill-rule:nonzero;"/><path d="M46.249,17.606c0,-2.848 0.628,-5.024 1.884,-6.527c1.279,-1.526 3.107,-2.288 5.484,-2.288c1.256,0 2.344,0.213 3.264,0.639c0.942,0.404 1.716,0.998 2.322,1.783c0.605,0.763 1.054,1.694 1.345,2.793c0.292,1.077 0.438,2.277 0.438,3.6c0,2.849 -0.639,5.036 -1.918,6.561c-1.256,1.503 -3.073,2.255 -5.451,2.255c-1.256,0 -2.355,-0.202 -3.297,-0.606c-0.92,-0.426 -1.682,-1.021 -2.288,-1.783c-0.606,-0.785 -1.054,-1.716 -1.346,-2.793c-0.291,-1.099 -0.437,-2.31 -0.437,-3.634Zm2.792,0c0,0.853 0.079,1.671 0.236,2.456c0.179,0.786 0.449,1.47 0.807,2.053c0.359,0.583 0.83,1.054 1.414,1.413c0.583,0.359 1.289,0.538 2.119,0.538c3.051,0.023 4.576,-2.131 4.576,-6.46c0,-0.875 -0.089,-1.705 -0.269,-2.49c-0.157,-0.785 -0.415,-1.469 -0.774,-2.052c-0.359,-0.583 -0.83,-1.043 -1.413,-1.38c-0.583,-0.358 -1.29,-0.538 -2.12,-0.538c-3.05,-0.022 -4.576,2.131 -4.576,6.46Z" style="fill:#ff7a7a;fill-rule:nonzero;"/><path d="M79.9,25.042c-0.673,0.516 -1.526,0.875 -2.557,1.077c-1.032,0.202 -2.131,0.303 -3.298,0.303c-1.413,0 -2.736,-0.236 -3.97,-0.707c-1.234,-0.493 -2.311,-1.234 -3.23,-2.221c-0.92,-0.987 -1.649,-2.243 -2.187,-3.768c-0.539,-1.548 -0.808,-3.376 -0.808,-5.484c0,-2.199 0.292,-4.06 0.875,-5.586c0.606,-1.547 1.391,-2.804 2.355,-3.768c0.987,-0.987 2.086,-1.705 3.298,-2.154c1.211,-0.448 2.445,-0.672 3.701,-0.672c1.346,0 2.445,0.078 3.297,0.235c0.853,0.135 1.582,0.325 2.187,0.572l-0.673,2.456c-1.076,-0.516 -2.613,-0.774 -4.609,-0.774c-0.92,0 -1.828,0.169 -2.726,0.505c-0.897,0.337 -1.704,0.886 -2.422,1.649c-0.696,0.762 -1.256,1.761 -1.683,2.994c-0.426,1.234 -0.639,2.748 -0.639,4.543c0,1.615 0.202,3.028 0.606,4.239c0.404,1.211 0.953,2.221 1.648,3.028c0.718,0.808 1.548,1.413 2.49,1.817c0.965,0.404 2.008,0.606 3.129,0.606c1.01,0 1.885,-0.101 2.625,-0.303c0.763,-0.202 1.402,-0.46 1.918,-0.774l0.673,2.187Z" style="fill:#ff7a7a;fill-rule:nonzero;"/><path d="M80.981,17.606c0,-2.848 0.628,-5.024 1.884,-6.527c1.279,-1.526 3.107,-2.288 5.484,-2.288c1.256,0 2.344,0.213 3.264,0.639c0.942,0.404 1.716,0.998 2.322,1.783c0.605,0.763 1.054,1.694 1.346,2.793c0.291,1.077 0.437,2.277 0.437,3.6c0,2.849 -0.639,5.036 -1.918,6.561c-1.256,1.503 -3.073,2.255 -5.451,2.255c-1.256,0 -2.355,-0.202 -3.297,-0.606c-0.92,-0.426 -1.682,-1.021 -2.288,-1.783c-0.606,-0.785 -1.054,-1.716 -1.346,-2.793c-0.291,-1.099 -0.437,-2.31 -0.437,-3.634Zm2.792,0c0,0.853 0.079,1.671 0.236,2.456c0.179,0.786 0.449,1.47 0.807,2.053c0.359,0.583 0.83,1.054 1.414,1.413c0.583,0.359 1.289,0.538 2.119,0.538c3.051,0.023 4.576,-2.131 4.576,-6.46c0,-0.875 -0.089,-1.705 -0.269,-2.49c-0.157,-0.785 -0.415,-1.469 -0.774,-2.052c-0.359,-0.583 -0.83,-1.043 -1.413,-1.38c-0.583,-0.358 -1.29,-0.538 -2.12,-0.538c-3.05,-0.022 -4.576,2.131 -4.576,6.46Z" style="fill:#ff7a7a;fill-rule:nonzero;"/><path d="M109.148,26.018l0,-9.522c0,-0.897 -0.045,-1.671 -0.135,-2.322c-0.067,-0.673 -0.213,-1.233 -0.437,-1.682c-0.225,-0.449 -0.55,-0.785 -0.976,-1.009c-0.404,-0.225 -0.942,-0.337 -1.615,-0.337c-1.032,0 -1.895,0.314 -2.591,0.942c-0.673,0.628 -1.144,1.413 -1.413,2.355l0,11.575l-2.692,0l0,-16.823l1.885,0l0.504,2.052l0.135,0c0.605,-0.718 1.301,-1.301 2.086,-1.75c0.807,-0.471 1.85,-0.706 3.129,-0.706c1.077,0 1.952,0.213 2.624,0.639c0.696,0.404 1.234,1.122 1.615,2.154c0.516,-0.875 1.223,-1.559 2.12,-2.053c0.92,-0.493 1.952,-0.74 3.096,-0.74c0.942,0 1.738,0.112 2.389,0.336c0.65,0.202 1.188,0.572 1.615,1.111c0.426,0.538 0.729,1.267 0.908,2.187c0.202,0.919 0.303,2.086 0.303,3.499l0,10.094l-2.692,0l0,-10.128c0,-0.807 -0.045,-1.503 -0.134,-2.086c-0.068,-0.605 -0.225,-1.099 -0.471,-1.48c-0.225,-0.404 -0.55,-0.696 -0.976,-0.875c-0.404,-0.202 -0.942,-0.303 -1.615,-0.303c-1.122,0 -1.997,0.314 -2.625,0.942c-0.628,0.628 -1.076,1.526 -1.346,2.692l0,11.238l-2.691,0Z" style="fill:#ff7a7a;fill-rule:nonzero;"/><path d="M125.921,9.195l1.851,0l0.505,2.018l0.134,0c0.516,-0.785 1.178,-1.379 1.985,-1.783c0.83,-0.426 1.772,-0.639 2.827,-0.639c2.243,0 3.914,0.662 5.013,1.985c1.099,1.323 1.649,3.488 1.649,6.494c0,1.413 -0.191,2.691 -0.572,3.835c-0.359,1.122 -0.875,2.075 -1.548,2.86c-0.673,0.786 -1.492,1.391 -2.456,1.817c-0.942,0.427 -1.997,0.64 -3.163,0.64c-0.83,0 -1.492,-0.056 -1.985,-0.169c-0.471,-0.089 -0.987,-0.258 -1.548,-0.504l0,6.998l-2.692,0l0,-23.552Zm6.797,1.951c-1.144,0 -2.053,0.303 -2.726,0.909c-0.65,0.583 -1.11,1.48 -1.379,2.691l0,8.345c0.404,0.314 0.864,0.56 1.379,0.74c0.516,0.157 1.201,0.235 2.053,0.235c1.548,0 2.77,-0.572 3.667,-1.716c0.92,-1.166 1.38,-2.871 1.38,-5.114c0,-0.92 -0.079,-1.749 -0.236,-2.49c-0.157,-0.762 -0.415,-1.402 -0.774,-1.918c-0.336,-0.538 -0.785,-0.953 -1.345,-1.244c-0.539,-0.292 -1.212,-0.438 -2.019,-0.438Z" style="fill:#ff7a7a;fill-rule:nonzero;"/><path d="M146.446,21.879c0,0.785 0.135,1.346 0.404,1.683c0.269,0.336 0.65,0.504 1.144,0.504c0.291,0 0.605,-0.022 0.942,-0.067c0.336,-0.045 0.718,-0.146 1.144,-0.303l0.303,2.12c-0.359,0.179 -0.864,0.325 -1.514,0.437c-0.628,0.113 -1.178,0.169 -1.649,0.169c-1.009,0 -1.839,-0.281 -2.49,-0.842c-0.65,-0.583 -0.976,-1.559 -0.976,-2.927l0,-20.188l2.692,0l0,19.414Z" style="fill:#ff7a7a;fill-rule:nonzero;"/><path d="M164.884,24.672c-0.673,0.538 -1.525,0.965 -2.557,1.279c-1.009,0.314 -2.086,0.471 -3.23,0.471c-1.279,0 -2.389,-0.202 -3.331,-0.606c-0.942,-0.426 -1.716,-1.021 -2.322,-1.783c-0.605,-0.785 -1.054,-1.716 -1.346,-2.793c-0.291,-1.077 -0.437,-2.288 -0.437,-3.634c0,-2.871 0.639,-5.058 1.918,-6.561c1.278,-1.503 3.107,-2.254 5.484,-2.254c0.763,0 1.526,0.09 2.288,0.269c0.763,0.157 1.447,0.471 2.053,0.942c0.605,0.471 1.099,1.144 1.48,2.019c0.381,0.852 0.572,1.985 0.572,3.398c0,0.74 -0.067,1.559 -0.202,2.456l-10.8,0c0,0.987 0.101,1.862 0.303,2.625c0.201,0.762 0.515,1.413 0.942,1.951c0.426,0.516 0.975,0.92 1.648,1.212c0.696,0.269 1.537,0.403 2.524,0.403c0.762,0 1.525,-0.134 2.288,-0.403c0.762,-0.27 1.334,-0.584 1.716,-0.942l1.009,1.951Zm-5.787,-13.526c-1.324,0 -2.389,0.348 -3.197,1.043c-0.785,0.696 -1.256,1.884 -1.413,3.567l8.345,0c0,-1.705 -0.326,-2.894 -0.976,-3.567c-0.651,-0.695 -1.57,-1.043 -2.759,-1.043Z" style="fill:#ff7a7a;fill-rule:nonzero;"/><path d="M166.796,9.195l2.624,0l0,-3.331l2.692,-0.774l0,4.105l4.576,0l0,2.355l-4.576,0l0,9.32c0,1.166 0.146,1.996 0.437,2.49c0.292,0.471 0.785,0.706 1.481,0.706c0.583,0 1.076,-0.056 1.48,-0.168c0.404,-0.134 0.852,-0.303 1.346,-0.505l0.606,2.053c-0.606,0.291 -1.268,0.527 -1.986,0.706c-0.717,0.18 -1.491,0.27 -2.321,0.27c-1.368,0 -2.333,-0.382 -2.894,-1.144c-0.561,-0.785 -0.841,-2.086 -0.841,-3.903l0,-9.825l-2.624,0l0,-2.355Z" style="fill:#ff7a7a;fill-rule:nonzero;"/><path d="M191.665,24.672c-0.673,0.538 -1.526,0.965 -2.558,1.279c-1.009,0.314 -2.086,0.471 -3.23,0.471c-1.278,0 -2.389,-0.202 -3.331,-0.606c-0.942,-0.426 -1.716,-1.021 -2.321,-1.783c-0.606,-0.785 -1.054,-1.716 -1.346,-2.793c-0.292,-1.077 -0.437,-2.288 -0.437,-3.634c0,-2.871 0.639,-5.058 1.917,-6.561c1.279,-1.503 3.107,-2.254 5.485,-2.254c0.762,0 1.525,0.09 2.288,0.269c0.762,0.157 1.446,0.471 2.052,0.942c0.606,0.471 1.099,1.144 1.481,2.019c0.381,0.852 0.572,1.985 0.572,3.398c0,0.74 -0.068,1.559 -0.202,2.456l-10.801,0c0,0.987 0.101,1.862 0.303,2.625c0.202,0.762 0.516,1.413 0.942,1.951c0.426,0.516 0.976,0.92 1.649,1.212c0.695,0.269 1.536,0.403 2.523,0.403c0.763,0 1.526,-0.134 2.288,-0.403c0.763,-0.27 1.335,-0.584 1.716,-0.942l1.01,1.951Zm-5.788,-13.526c-1.323,0 -2.389,0.348 -3.196,1.043c-0.785,0.696 -1.256,1.884 -1.413,3.567l8.344,0c0,-1.705 -0.325,-2.894 -0.976,-3.567c-0.65,-0.695 -1.57,-1.043 -2.759,-1.043Z" style="fill:#ff7a7a;fill-rule:nonzero;"/><path d="M194.855,24.47c0,-0.606 0.168,-1.077 0.504,-1.413c0.359,-0.359 0.83,-0.538 1.413,-0.538c0.606,0 1.088,0.179 1.447,0.538c0.359,0.336 0.539,0.807 0.539,1.413c0,0.583 -0.18,1.054 -0.539,1.413c-0.359,0.359 -0.841,0.539 -1.447,0.539c-0.583,0 -1.054,-0.18 -1.413,-0.539c-0.336,-0.359 -0.504,-0.83 -0.504,-1.413Z" style="fill:#ff7a7a;fill-rule:nonzero;"/><path d="M202.858,9.195l2.692,0l0,17.731c0,2.086 -0.359,3.645 -1.077,4.677c-0.718,1.032 -1.862,1.548 -3.432,1.548c-0.179,0 -0.348,-0.011 -0.505,-0.034c-0.157,0 -0.325,-0.011 -0.504,-0.033l0,-2.288c0.628,0 1.121,-0.101 1.48,-0.303c0.381,-0.18 0.673,-0.471 0.875,-0.875c0.202,-0.404 0.325,-0.92 0.37,-1.548c0.067,-0.605 0.101,-1.323 0.101,-2.153l0,-16.722Zm-0.572,-5.115c0,-0.516 0.168,-0.953 0.505,-1.312c0.359,-0.381 0.807,-0.572 1.346,-0.572c0.538,0 0.998,0.191 1.379,0.572c0.381,0.359 0.572,0.796 0.572,1.312c0,0.516 -0.191,0.942 -0.572,1.279c-0.381,0.336 -0.841,0.505 -1.379,0.505c-0.539,0 -0.987,-0.169 -1.346,-0.505c-0.337,-0.337 -0.505,-0.763 -0.505,-1.279Z" style="fill:#ff7a7a;fill-rule:nonzero;"/><path d="M218.019,21.442c0,-0.673 -0.202,-1.2 -0.605,-1.581c-0.404,-0.382 -0.909,-0.696 -1.515,-0.943c-0.583,-0.269 -1.233,-0.515 -1.951,-0.74c-0.695,-0.247 -1.346,-0.549 -1.952,-0.908c-0.583,-0.382 -1.076,-0.864 -1.48,-1.447c-0.404,-0.583 -0.606,-1.368 -0.606,-2.355c0,-1.615 0.46,-2.793 1.38,-3.533c0.92,-0.763 2.198,-1.144 3.836,-1.144c1.211,0 2.22,0.112 3.028,0.336c0.83,0.202 1.547,0.449 2.153,0.741l-0.639,2.22c-0.516,-0.247 -1.144,-0.46 -1.884,-0.639c-0.718,-0.202 -1.492,-0.303 -2.322,-0.303c-0.987,0 -1.716,0.168 -2.187,0.505c-0.449,0.336 -0.673,0.92 -0.673,1.749c0,0.584 0.202,1.043 0.606,1.38c0.403,0.314 0.897,0.606 1.48,0.875c0.606,0.246 1.256,0.493 1.952,0.74c0.717,0.247 1.368,0.572 1.951,0.976c0.606,0.403 1.11,0.919 1.514,1.547c0.404,0.606 0.606,1.414 0.606,2.423c0,0.718 -0.124,1.391 -0.37,2.019c-0.225,0.628 -0.583,1.166 -1.077,1.615c-0.493,0.448 -1.11,0.796 -1.85,1.043c-0.718,0.269 -1.571,0.404 -2.558,0.404c-1.278,0 -2.366,-0.124 -3.263,-0.371c-0.898,-0.246 -1.649,-0.538 -2.255,-0.874l0.808,-2.288c0.516,0.291 1.189,0.561 2.019,0.807c0.83,0.247 1.671,0.37 2.523,0.37c0.965,0 1.761,-0.19 2.389,-0.572c0.628,-0.381 0.942,-1.065 0.942,-2.052Z" style="fill:#ff7a7a;fill-rule:nonzero;"/><path d="M3.071,10.44c0.852,-0.516 1.839,-0.898 2.961,-1.144c1.144,-0.247 2.333,-0.371 3.566,-0.371c1.167,0 2.098,0.157 2.793,0.471c0.718,0.315 1.256,0.729 1.615,1.245c0.381,0.494 0.628,1.043 0.74,1.649c0.135,0.606 0.202,1.211 0.202,1.817c0,1.346 -0.034,2.658 -0.101,3.937c-0.067,1.278 -0.101,2.489 -0.101,3.633c0,0.83 0.034,1.615 0.101,2.356c0.067,0.74 0.191,1.424 0.37,2.052l-1.985,0l-0.706,-2.355l-0.169,0c-0.202,0.314 -0.459,0.628 -0.774,0.942c-0.291,0.292 -0.65,0.561 -1.076,0.808c-0.426,0.224 -0.92,0.414 -1.481,0.571c-0.56,0.158 -1.2,0.236 -1.917,0.236c-0.718,0 -1.391,-0.112 -2.019,-0.336c-0.606,-0.225 -1.133,-0.539 -1.582,-0.943c-0.448,-0.426 -0.807,-0.93 -1.076,-1.514c-0.247,-0.583 -0.37,-1.245 -0.37,-1.985c0,-0.987 0.201,-1.805 0.605,-2.456c0.404,-0.673 0.965,-1.2 1.683,-1.581c0.74,-0.404 1.615,-0.684 2.624,-0.841c1.032,-0.18 2.165,-0.27 3.398,-0.27c0.314,0 0.617,0 0.909,0c0.314,0 0.628,0.023 0.942,0.068c0.067,-0.673 0.101,-1.279 0.101,-1.817c0,-1.234 -0.247,-2.098 -0.741,-2.591c-0.493,-0.494 -1.39,-0.74 -2.691,-0.74c-0.382,0 -0.797,0.033 -1.245,0.101c-0.426,0.045 -0.875,0.123 -1.346,0.235c-0.449,0.09 -0.886,0.213 -1.312,0.37c-0.404,0.135 -0.763,0.292 -1.077,0.471l-0.841,-2.018Zm4.778,13.492c0.628,0 1.189,-0.079 1.682,-0.236c0.494,-0.179 0.92,-0.392 1.279,-0.639c0.359,-0.269 0.65,-0.561 0.874,-0.875c0.247,-0.314 0.427,-0.617 0.539,-0.908l0,-2.793c-0.314,-0.022 -0.64,-0.034 -0.976,-0.034c-0.314,-0.022 -0.628,-0.033 -0.942,-0.033c-0.695,0 -1.38,0.045 -2.053,0.134c-0.65,0.068 -1.233,0.213 -1.749,0.438c-0.494,0.202 -0.897,0.493 -1.211,0.875c-0.292,0.358 -0.438,0.818 -0.438,1.379c0,0.785 0.281,1.436 0.841,1.952c0.561,0.493 1.279,0.74 2.154,0.74Z" style="fill:none;stroke:#ff7a7a;stroke-width:1px;"/><path d="M21.782,9.195l0,9.589c0,0.875 0.044,1.649 0.134,2.321c0.112,0.651 0.292,1.201 0.538,1.649c0.247,0.426 0.584,0.752 1.01,0.976c0.426,0.224 0.964,0.336 1.615,0.336c0.605,0 1.144,-0.089 1.615,-0.269c0.471,-0.202 0.886,-0.471 1.245,-0.807c0.381,-0.337 0.706,-0.718 0.976,-1.144c0.291,-0.449 0.527,-0.92 0.706,-1.413l0,-11.238l2.692,0l0,12.045c0,0.808 0.022,1.649 0.067,2.524c0.067,0.852 0.168,1.603 0.303,2.254l-1.851,0l-0.673,-2.658l-0.168,0c-0.516,0.875 -1.211,1.604 -2.086,2.187c-0.875,0.583 -1.985,0.875 -3.331,0.875c-0.897,0 -1.693,-0.113 -2.389,-0.337c-0.673,-0.202 -1.245,-0.572 -1.716,-1.11c-0.448,-0.539 -0.796,-1.256 -1.043,-2.154c-0.224,-0.919 -0.336,-2.074 -0.336,-3.465l0,-10.161l2.692,0Z" style="fill:none;stroke:#ff7a7a;stroke-width:1px;"/><path d="M34.603,9.195l2.624,0l0,-3.331l2.692,-0.774l0,4.105l4.576,0l0,2.355l-4.576,0l0,9.32c0,1.166 0.146,1.996 0.437,2.49c0.292,0.471 0.786,0.706 1.481,0.706c0.583,0 1.077,-0.056 1.48,-0.168c0.404,-0.134 0.853,-0.303 1.346,-0.505l0.606,2.053c-0.606,0.291 -1.268,0.527 -1.985,0.706c-0.718,0.18 -1.492,0.27 -2.322,0.27c-1.368,0 -2.333,-0.382 -2.894,-1.144c-0.56,-0.785 -0.841,-2.086 -0.841,-3.903l0,-9.825l-2.624,0l0,-2.355Z" style="fill:none;stroke:#ff7a7a;stroke-width:1px;"/><path d="M46.249,17.606c0,-2.848 0.628,-5.024 1.884,-6.527c1.279,-1.526 3.107,-2.288 5.484,-2.288c1.256,0 2.344,0.213 3.264,0.639c0.942,0.404 1.716,0.998 2.322,1.783c0.605,0.763 1.054,1.694 1.345,2.793c0.292,1.077 0.438,2.277 0.438,3.6c0,2.849 -0.639,5.036 -1.918,6.561c-1.256,1.503 -3.073,2.255 -5.451,2.255c-1.256,0 -2.355,-0.202 -3.297,-0.606c-0.92,-0.426 -1.682,-1.021 -2.288,-1.783c-0.606,-0.785 -1.054,-1.716 -1.346,-2.793c-0.291,-1.099 -0.437,-2.31 -0.437,-3.634Zm2.792,0c0,0.853 0.079,1.671 0.236,2.456c0.179,0.786 0.449,1.47 0.807,2.053c0.359,0.583 0.83,1.054 1.414,1.413c0.583,0.359 1.289,0.538 2.119,0.538c3.051,0.023 4.576,-2.131 4.576,-6.46c0,-0.875 -0.089,-1.705 -0.269,-2.49c-0.157,-0.785 -0.415,-1.469 -0.774,-2.052c-0.359,-0.583 -0.83,-1.043 -1.413,-1.38c-0.583,-0.358 -1.29,-0.538 -2.12,-0.538c-3.05,-0.022 -4.576,2.131 -4.576,6.46Z" style="fill:none;stroke:#ff7a7a;stroke-width:1px;"/><path d="M79.9,25.042c-0.673,0.516 -1.526,0.875 -2.557,1.077c-1.032,0.202 -2.131,0.303 -3.298,0.303c-1.413,0 -2.736,-0.236 -3.97,-0.707c-1.234,-0.493 -2.311,-1.234 -3.23,-2.221c-0.92,-0.987 -1.649,-2.243 -2.187,-3.768c-0.539,-1.548 -0.808,-3.376 -0.808,-5.484c0,-2.199 0.292,-4.06 0.875,-5.586c0.606,-1.547 1.391,-2.804 2.355,-3.768c0.987,-0.987 2.086,-1.705 3.298,-2.154c1.211,-0.448 2.445,-0.672 3.701,-0.672c1.346,0 2.445,0.078 3.297,0.235c0.853,0.135 1.582,0.325 2.187,0.572l-0.673,2.456c-1.076,-0.516 -2.613,-0.774 -4.609,-0.774c-0.92,0 -1.828,0.169 -2.726,0.505c-0.897,0.337 -1.704,0.886 -2.422,1.649c-0.696,0.762 -1.256,1.761 -1.683,2.994c-0.426,1.234 -0.639,2.748 -0.639,4.543c0,1.615 0.202,3.028 0.606,4.239c0.404,1.211 0.953,2.221 1.648,3.028c0.718,0.808 1.548,1.413 2.49,1.817c0.965,0.404 2.008,0.606 3.129,0.606c1.01,0 1.885,-0.101 2.625,-0.303c0.763,-0.202 1.402,-0.46 1.918,-0.774l0.673,2.187Z" style="fill:none;stroke:#ff7a7a;stroke-width:1px;"/><path d="M80.981,17.606c0,-2.848 0.628,-5.024 1.884,-6.527c1.279,-1.526 3.107,-2.288 5.484,-2.288c1.256,0 2.344,0.213 3.264,0.639c0.942,0.404 1.716,0.998 2.322,1.783c0.605,0.763 1.054,1.694 1.346,2.793c0.291,1.077 0.437,2.277 0.437,3.6c0,2.849 -0.639,5.036 -1.918,6.561c-1.256,1.503 -3.073,2.255 -5.451,2.255c-1.256,0 -2.355,-0.202 -3.297,-0.606c-0.92,-0.426 -1.682,-1.021 -2.288,-1.783c-0.606,-0.785 -1.054,-1.716 -1.346,-2.793c-0.291,-1.099 -0.437,-2.31 -0.437,-3.634Zm2.792,0c0,0.853 0.079,1.671 0.236,2.456c0.179,0.786 0.449,1.47 0.807,2.053c0.359,0.583 0.83,1.054 1.414,1.413c0.583,0.359 1.289,0.538 2.119,0.538c3.051,0.023 4.576,-2.131 4.576,-6.46c0,-0.875 -0.089,-1.705 -0.269,-2.49c-0.157,-0.785 -0.415,-1.469 -0.774,-2.052c-0.359,-0.583 -0.83,-1.043 -1.413,-1.38c-0.583,-0.358 -1.29,-0.538 -2.12,-0.538c-3.05,-0.022 -4.576,2.131 -4.576,6.46Z" style="fill:none;stroke:#ff7a7a;stroke-width:1px;"/><path d="M109.148,26.018l0,-9.522c0,-0.897 -0.045,-1.671 -0.135,-2.322c-0.067,-0.673 -0.213,-1.233 -0.437,-1.682c-0.225,-0.449 -0.55,-0.785 -0.976,-1.009c-0.404,-0.225 -0.942,-0.337 -1.615,-0.337c-1.032,0 -1.895,0.314 -2.591,0.942c-0.673,0.628 -1.144,1.413 -1.413,2.355l0,11.575l-2.692,0l0,-16.823l1.885,0l0.504,2.052l0.135,0c0.605,-0.718 1.301,-1.301 2.086,-1.75c0.807,-0.471 1.85,-0.706 3.129,-0.706c1.077,0 1.952,0.213 2.624,0.639c0.696,0.404 1.234,1.122 1.615,2.154c0.516,-0.875 1.223,-1.559 2.12,-2.053c0.92,-0.493 1.952,-0.74 3.096,-0.74c0.942,0 1.738,0.112 2.389,0.336c0.65,0.202 1.188,0.572 1.615,1.111c0.426,0.538 0.729,1.267 0.908,2.187c0.202,0.919 0.303,2.086 0.303,3.499l0,10.094l-2.692,0l0,-10.128c0,-0.807 -0.045,-1.503 -0.134,-2.086c-0.068,-0.605 -0.225,-1.099 -0.471,-1.48c-0.225,-0.404 -0.55,-0.696 -0.976,-0.875c-0.404,-0.202 -0.942,-0.303 -1.615,-0.303c-1.122,0 -1.997,0.314 -2.625,0.942c-0.628,0.628 -1.076,1.526 -1.346,2.692l0,11.238l-2.691,0Z" style="fill:none;stroke:#ff7a7a;stroke-width:1px;"/><path d="M125.921,9.195l1.851,0l0.505,2.018l0.134,0c0.516,-0.785 1.178,-1.379 1.985,-1.783c0.83,-0.426 1.772,-0.639 2.827,-0.639c2.243,0 3.914,0.662 5.013,1.985c1.099,1.323 1.649,3.488 1.649,6.494c0,1.413 -0.191,2.691 -0.572,3.835c-0.359,1.122 -0.875,2.075 -1.548,2.86c-0.673,0.786 -1.492,1.391 -2.456,1.817c-0.942,0.427 -1.997,0.64 -3.163,0.64c-0.83,0 -1.492,-0.056 -1.985,-0.169c-0.471,-0.089 -0.987,-0.258 -1.548,-0.504l0,6.998l-2.692,0l0,-23.552Zm6.797,1.951c-1.144,0 -2.053,0.303 -2.726,0.909c-0.65,0.583 -1.11,1.48 -1.379,2.691l0,8.345c0.404,0.314 0.864,0.56 1.379,0.74c0.516,0.157 1.201,0.235 2.053,0.235c1.548,0 2.77,-0.572 3.667,-1.716c0.92,-1.166 1.38,-2.871 1.38,-5.114c0,-0.92 -0.079,-1.749 -0.236,-2.49c-0.157,-0.762 -0.415,-1.402 -0.774,-1.918c-0.336,-0.538 -0.785,-0.953 -1.345,-1.244c-0.539,-0.292 -1.212,-0.438 -2.019,-0.438Z" style="fill:none;stroke:#ff7a7a;stroke-width:1px;"/><path d="M146.446,21.879c0,0.785 0.135,1.346 0.404,1.683c0.269,0.336 0.65,0.504 1.144,0.504c0.291,0 0.605,-0.022 0.942,-0.067c0.336,-0.045 0.718,-0.146 1.144,-0.303l0.303,2.12c-0.359,0.179 -0.864,0.325 -1.514,0.437c-0.628,0.113 -1.178,0.169 -1.649,0.169c-1.009,0 -1.839,-0.281 -2.49,-0.842c-0.65,-0.583 -0.976,-1.559 -0.976,-2.927l0,-20.188l2.692,0l0,19.414Z" style="fill:none;stroke:#ff7a7a;stroke-width:1px;"/><path d="M164.884,24.672c-0.673,0.538 -1.525,0.965 -2.557,1.279c-1.009,0.314 -2.086,0.471 -3.23,0.471c-1.279,0 -2.389,-0.202 -3.331,-0.606c-0.942,-0.426 -1.716,-1.021 -2.322,-1.783c-0.605,-0.785 -1.054,-1.716 -1.346,-2.793c-0.291,-1.077 -0.437,-2.288 -0.437,-3.634c0,-2.871 0.639,-5.058 1.918,-6.561c1.278,-1.503 3.107,-2.254 5.484,-2.254c0.763,0 1.526,0.09 2.288,0.269c0.763,0.157 1.447,0.471 2.053,0.942c0.605,0.471 1.099,1.144 1.48,2.019c0.381,0.852 0.572,1.985 0.572,3.398c0,0.74 -0.067,1.559 -0.202,2.456l-10.8,0c0,0.987 0.101,1.862 0.303,2.625c0.201,0.762 0.515,1.413 0.942,1.951c0.426,0.516 0.975,0.92 1.648,1.212c0.696,0.269 1.537,0.403 2.524,0.403c0.762,0 1.525,-0.134 2.288,-0.403c0.762,-0.27 1.334,-0.584 1.716,-0.942l1.009,1.951Zm-5.787,-13.526c-1.324,0 -2.389,0.348 -3.197,1.043c-0.785,0.696 -1.256,1.884 -1.413,3.567l8.345,0c0,-1.705 -0.326,-2.894 -0.976,-3.567c-0.651,-0.695 -1.57,-1.043 -2.759,-1.043Z" style="fill:none;stroke:#ff7a7a;stroke-width:1px;"/><path d="M166.796,9.195l2.624,0l0,-3.331l2.692,-0.774l0,4.105l4.576,0l0,2.355l-4.576,0l0,9.32c0,1.166 0.146,1.996 0.437,2.49c0.292,0.471 0.785,0.706 1.481,0.706c0.583,0 1.076,-0.056 1.48,-0.168c0.404,-0.134 0.852,-0.303 1.346,-0.505l0.606,2.053c-0.606,0.291 -1.268,0.527 -1.986,0.706c-0.717,0.18 -1.491,0.27 -2.321,0.27c-1.368,0 -2.333,-0.382 -2.894,-1.144c-0.561,-0.785 -0.841,-2.086 -0.841,-3.903l0,-9.825l-2.624,0l0,-2.355Z" style="fill:none;stroke:#ff7a7a;stroke-width:1px;"/><path d="M191.665,24.672c-0.673,0.538 -1.526,0.965 -2.558,1.279c-1.009,0.314 -2.086,0.471 -3.23,0.471c-1.278,0 -2.389,-0.202 -3.331,-0.606c-0.942,-0.426 -1.716,-1.021 -2.321,-1.783c-0.606,-0.785 -1.054,-1.716 -1.346,-2.793c-0.292,-1.077 -0.437,-2.288 -0.437,-3.634c0,-2.871 0.639,-5.058 1.917,-6.561c1.279,-1.503 3.107,-2.254 5.485,-2.254c0.762,0 1.525,0.09 2.288,0.269c0.762,0.157 1.446,0.471 2.052,0.942c0.606,0.471 1.099,1.144 1.481,2.019c0.381,0.852 0.572,1.985 0.572,3.398c0,0.74 -0.068,1.559 -0.202,2.456l-10.801,0c0,0.987 0.101,1.862 0.303,2.625c0.202,0.762 0.516,1.413 0.942,1.951c0.426,0.516 0.976,0.92 1.649,1.212c0.695,0.269 1.536,0.403 2.523,0.403c0.763,0 1.526,-0.134 2.288,-0.403c0.763,-0.27 1.335,-0.584 1.716,-0.942l1.01,1.951Zm-5.788,-13.526c-1.323,0 -2.389,0.348 -3.196,1.043c-0.785,0.696 -1.256,1.884 -1.413,3.567l8.344,0c0,-1.705 -0.325,-2.894 -0.976,-3.567c-0.65,-0.695 -1.57,-1.043 -2.759,-1.043Z" style="fill:none;stroke:#ff7a7a;stroke-width:1px;"/><path d="M194.855,24.47c0,-0.606 0.168,-1.077 0.504,-1.413c0.359,-0.359 0.83,-0.538 1.413,-0.538c0.606,0 1.088,0.179 1.447,0.538c0.359,0.336 0.539,0.807 0.539,1.413c0,0.583 -0.18,1.054 -0.539,1.413c-0.359,0.359 -0.841,0.539 -1.447,0.539c-0.583,0 -1.054,-0.18 -1.413,-0.539c-0.336,-0.359 -0.504,-0.83 -0.504,-1.413Z" style="fill:none;stroke:#ff7a7a;stroke-width:1px;"/><path d="M202.858,9.195l2.692,0l0,17.731c0,2.086 -0.359,3.645 -1.077,4.677c-0.718,1.032 -1.862,1.548 -3.432,1.548c-0.179,0 -0.348,-0.011 -0.505,-0.034c-0.157,0 -0.325,-0.011 -0.504,-0.033l0,-2.288c0.628,0 1.121,-0.101 1.48,-0.303c0.381,-0.18 0.673,-0.471 0.875,-0.875c0.202,-0.404 0.325,-0.92 0.37,-1.548c0.067,-0.605 0.101,-1.323 0.101,-2.153l0,-16.722Zm-0.572,-5.115c0,-0.516 0.168,-0.953 0.505,-1.312c0.359,-0.381 0.807,-0.572 1.346,-0.572c0.538,0 0.998,0.191 1.379,0.572c0.381,0.359 0.572,0.796 0.572,1.312c0,0.516 -0.191,0.942 -0.572,1.279c-0.381,0.336 -0.841,0.505 -1.379,0.505c-0.539,0 -0.987,-0.169 -1.346,-0.505c-0.337,-0.337 -0.505,-0.763 -0.505,-1.279Z" style="fill:none;stroke:#ff7a7a;stroke-width:1px;"/><path d="M218.019,21.442c0,-0.673 -0.202,-1.2 -0.605,-1.581c-0.404,-0.382 -0.909,-0.696 -1.515,-0.943c-0.583,-0.269 -1.233,-0.515 -1.951,-0.74c-0.695,-0.247 -1.346,-0.549 -1.952,-0.908c-0.583,-0.382 -1.076,-0.864 -1.48,-1.447c-0.404,-0.583 -0.606,-1.368 -0.606,-2.355c0,-1.615 0.46,-2.793 1.38,-3.533c0.92,-0.763 2.198,-1.144 3.836,-1.144c1.211,0 2.22,0.112 3.028,0.336c0.83,0.202 1.547,0.449 2.153,0.741l-0.639,2.22c-0.516,-0.247 -1.144,-0.46 -1.884,-0.639c-0.718,-0.202 -1.492,-0.303 -2.322,-0.303c-0.987,0 -1.716,0.168 -2.187,0.505c-0.449,0.336 -0.673,0.92 -0.673,1.749c0,0.584 0.202,1.043 0.606,1.38c0.403,0.314 0.897,0.606 1.48,0.875c0.606,0.246 1.256,0.493 1.952,0.74c0.717,0.247 1.368,0.572 1.951,0.976c0.606,0.403 1.11,0.919 1.514,1.547c0.404,0.606 0.606,1.414 0.606,2.423c0,0.718 -0.124,1.391 -0.37,2.019c-0.225,0.628 -0.583,1.166 -1.077,1.615c-0.493,0.448 -1.11,0.796 -1.85,1.043c-0.718,0.269 -1.571,0.404 -2.558,0.404c-1.278,0 -2.366,-0.124 -3.263,-0.371c-0.898,-0.246 -1.649,-0.538 -2.255,-0.874l0.808,-2.288c0.516,0.291 1.189,0.561 2.019,0.807c0.83,0.247 1.671,0.37 2.523,0.37c0.965,0 1.761,-0.19 2.389,-0.572c0.628,-0.381 0.942,-1.065 0.942,-2.052Z" style="fill:none;stroke:#ff7a7a;stroke-width:1px;"/></g></g></svg>