<svg xmlns="http://www.w3.org/2000/svg" fill-rule="evenodd" clip-rule="evenodd" viewBox="0 0 223 98"><path fill="none" stroke="#ff7a7a" d="M208.886 77.518c0-9.935-8.065-18-18-18h-159c-9.934 0-18 8.065-18 18 0 9.934 8.066 18 18 18h159c9.935 0 18-8.066 18-18z"/><path fill="#ff7a7a" fill-rule="nonzero" d="M120.59 83.699l-4.988-4.99a7.435 7.435 0 0 0 .735-3.216 7.476 7.476 0 1 0-7.476 7.476c1.154 0 2.241-.27 3.217-.735l4.989 4.988a2.49 2.49 0 0 0 3.523 0 2.49 2.49 0 0 0 0-3.523zm-17.543-8.206a5.813 5.813 0 0 1 5.814-5.814 5.814 5.814 0 1 1-5.814 5.814zm16.369 10.555a.834.834 0 0 1-1.175 0l-4.717-4.718a7.59 7.59 0 0 0 1.175-1.175l4.717 4.718a.834.834 0 0 1 0 1.175zM3.071 10.44c.852-.516 1.839-.898 2.961-1.144a16.855 16.855 0 0 1 3.566-.371c1.167 0 2.098.157 2.793.471.718.315 1.256.729 1.615 1.245.381.494.628 1.043.74 1.649.135.606.202 1.211.202 1.817 0 1.346-.034 2.658-.101 3.937a69.569 69.569 0 0 0-.101 3.633c0 .83.034 1.615.101 2.356.067.74.191 1.424.37 2.052h-1.985l-.706-2.355h-.169a5.68 5.68 0 0 1-.774.942c-.291.292-.65.561-1.076.808-.426.224-.92.414-1.481.571-.56.158-1.2.236-1.917.236a5.966 5.966 0 0 1-2.019-.336 4.871 4.871 0 0 1-1.582-.943 4.887 4.887 0 0 1-1.076-1.514c-.247-.583-.37-1.245-.37-1.985 0-.987.201-1.805.605-2.456.404-.673.965-1.2 1.683-1.581.74-.404 1.615-.684 2.624-.841a19.83 19.83 0 0 1 3.398-.27h.909c.314 0 .628.023.942.068.067-.673.101-1.279.101-1.817 0-1.234-.247-2.098-.741-2.591-.493-.494-1.39-.74-2.691-.74-.382 0-.797.033-1.245.101-.426.045-.875.123-1.346.235-.449.09-.886.213-1.312.37a6.035 6.035 0 0 0-1.077.471l-.841-2.018zm4.778 13.492c.628 0 1.189-.079 1.682-.236.494-.179.92-.392 1.279-.639.359-.269.65-.561.874-.875.247-.314.427-.617.539-.908v-2.793c-.314-.022-.64-.034-.976-.034a13.474 13.474 0 0 0-.942-.033c-.695 0-1.38.045-2.053.134a5.888 5.888 0 0 0-1.749.438 3.007 3.007 0 0 0-1.211.875c-.292.358-.438.818-.438 1.379 0 .785.281 1.436.841 1.952.561.493 1.279.74 2.154.74zM21.782 9.195v9.589c0 .875.044 1.649.134 2.321.112.651.292 1.201.538 1.649a2.49 2.49 0 0 0 1.01.976c.426.224.964.336 1.615.336.605 0 1.144-.089 1.615-.269a4.265 4.265 0 0 0 1.245-.807c.381-.337.706-.718.976-1.144.291-.449.527-.92.706-1.413V9.195h2.692V21.24c0 .808.022 1.649.067 2.524.067.852.168 1.603.303 2.254h-1.851l-.673-2.658h-.168a6.686 6.686 0 0 1-2.086 2.187c-.875.583-1.985.875-3.331.875-.897 0-1.693-.113-2.389-.337a3.627 3.627 0 0 1-1.716-1.11c-.448-.539-.796-1.256-1.043-2.154-.224-.919-.336-2.074-.336-3.465V9.195h2.692zm12.821 0h2.624V5.864l2.692-.774v4.105h4.576v2.355h-4.576v9.32c0 1.166.146 1.996.437 2.49.292.471.786.706 1.481.706.583 0 1.077-.056 1.48-.168a21.2 21.2 0 0 0 1.346-.505l.606 2.053c-.606.291-1.268.527-1.985.706-.718.18-1.492.27-2.322.27-1.368 0-2.333-.382-2.894-1.144-.56-.785-.841-2.086-.841-3.903V11.55h-2.624V9.195zm11.646 8.411c0-2.848.628-5.024 1.884-6.527 1.279-1.526 3.107-2.288 5.484-2.288 1.256 0 2.344.213 3.264.639a5.732 5.732 0 0 1 2.322 1.783c.605.763 1.054 1.694 1.345 2.793.292 1.077.438 2.277.438 3.6 0 2.849-.639 5.036-1.918 6.561-1.256 1.503-3.073 2.255-5.451 2.255-1.256 0-2.355-.202-3.297-.606a6.208 6.208 0 0 1-2.288-1.783c-.606-.785-1.054-1.716-1.346-2.793-.291-1.099-.437-2.31-.437-3.634zm2.792 0c0 .853.079 1.671.236 2.456.179.786.449 1.47.807 2.053.359.583.83 1.054 1.414 1.413.583.359 1.289.538 2.119.538 3.051.023 4.576-2.131 4.576-6.46 0-.875-.089-1.705-.269-2.49-.157-.785-.415-1.469-.774-2.052a3.973 3.973 0 0 0-1.413-1.38c-.583-.358-1.29-.538-2.12-.538-3.05-.022-4.576 2.131-4.576 6.46zM79.9 25.042c-.673.516-1.526.875-2.557 1.077a17.153 17.153 0 0 1-3.298.303c-1.413 0-2.736-.236-3.97-.707a8.857 8.857 0 0 1-3.23-2.221c-.92-.987-1.649-2.243-2.187-3.768-.539-1.548-.808-3.376-.808-5.484 0-2.199.292-4.06.875-5.586.606-1.547 1.391-2.804 2.355-3.768.987-.987 2.086-1.705 3.298-2.154a10.592 10.592 0 0 1 3.701-.672c1.346 0 2.445.078 3.297.235.853.135 1.582.325 2.187.572l-.673 2.456c-1.076-.516-2.613-.774-4.609-.774-.92 0-1.828.169-2.726.505-.897.337-1.704.886-2.422 1.649-.696.762-1.256 1.761-1.683 2.994-.426 1.234-.639 2.748-.639 4.543 0 1.615.202 3.028.606 4.239.404 1.211.953 2.221 1.648 3.028a6.994 6.994 0 0 0 2.49 1.817 8.02 8.02 0 0 0 3.129.606c1.01 0 1.885-.101 2.625-.303.763-.202 1.402-.46 1.918-.774l.673 2.187zm1.081-7.436c0-2.848.628-5.024 1.884-6.527 1.279-1.526 3.107-2.288 5.484-2.288 1.256 0 2.344.213 3.264.639a5.732 5.732 0 0 1 2.322 1.783c.605.763 1.054 1.694 1.346 2.793.291 1.077.437 2.277.437 3.6 0 2.849-.639 5.036-1.918 6.561-1.256 1.503-3.073 2.255-5.451 2.255-1.256 0-2.355-.202-3.297-.606a6.208 6.208 0 0 1-2.288-1.783c-.606-.785-1.054-1.716-1.346-2.793-.291-1.099-.437-2.31-.437-3.634zm2.792 0c0 .853.079 1.671.236 2.456.179.786.449 1.47.807 2.053.359.583.83 1.054 1.414 1.413.583.359 1.289.538 2.119.538 3.051.023 4.576-2.131 4.576-6.46 0-.875-.089-1.705-.269-2.49-.157-.785-.415-1.469-.774-2.052a3.973 3.973 0 0 0-1.413-1.38c-.583-.358-1.29-.538-2.12-.538-3.05-.022-4.576 2.131-4.576 6.46zm25.375 8.412v-9.522c0-.897-.045-1.671-.135-2.322-.067-.673-.213-1.233-.437-1.682a2.24 2.24 0 0 0-.976-1.009c-.404-.225-.942-.337-1.615-.337-1.032 0-1.895.314-2.591.942-.673.628-1.144 1.413-1.413 2.355v11.575h-2.692V9.195h1.885l.504 2.052h.135a7.74 7.74 0 0 1 2.086-1.75c.807-.471 1.85-.706 3.129-.706 1.077 0 1.952.213 2.624.639.696.404 1.234 1.122 1.615 2.154a5.49 5.49 0 0 1 2.12-2.053c.92-.493 1.952-.74 3.096-.74.942 0 1.738.112 2.389.336.65.202 1.188.572 1.615 1.111.426.538.729 1.267.908 2.187.202.919.303 2.086.303 3.499v10.094h-2.692V15.89c0-.807-.045-1.503-.134-2.086-.068-.605-.225-1.099-.471-1.48a1.955 1.955 0 0 0-.976-.875c-.404-.202-.942-.303-1.615-.303-1.122 0-1.997.314-2.625.942-.628.628-1.076 1.526-1.346 2.692v11.238h-2.691zm16.773-16.823h1.851l.505 2.018h.134a5.055 5.055 0 0 1 1.985-1.783c.83-.426 1.772-.639 2.827-.639 2.243 0 3.914.662 5.013 1.985 1.099 1.323 1.649 3.488 1.649 6.494 0 1.413-.191 2.691-.572 3.835-.359 1.122-.875 2.075-1.548 2.86a6.814 6.814 0 0 1-2.456 1.817c-.942.427-1.997.64-3.163.64-.83 0-1.492-.056-1.985-.169a7.27 7.27 0 0 1-1.548-.504v6.998h-2.692V9.195zm6.797 1.951c-1.144 0-2.053.303-2.726.909-.65.583-1.11 1.48-1.379 2.691v8.345c.404.314.864.56 1.379.74.516.157 1.201.235 2.053.235 1.548 0 2.77-.572 3.667-1.716.92-1.166 1.38-2.871 1.38-5.114 0-.92-.079-1.749-.236-2.49-.157-.762-.415-1.402-.774-1.918a3.418 3.418 0 0 0-1.345-1.244c-.539-.292-1.212-.438-2.019-.438zm13.728 10.733c0 .785.135 1.346.404 1.683.269.336.65.504 1.144.504.291 0 .605-.022.942-.067a5.465 5.465 0 0 0 1.144-.303l.303 2.12c-.359.179-.864.325-1.514.437a9.464 9.464 0 0 1-1.649.169c-1.009 0-1.839-.281-2.49-.842-.65-.583-.976-1.559-.976-2.927V2.465h2.692v19.414zm18.438 2.793c-.673.538-1.525.965-2.557 1.279a10.814 10.814 0 0 1-3.23.471c-1.279 0-2.389-.202-3.331-.606a6.15 6.15 0 0 1-2.322-1.783c-.605-.785-1.054-1.716-1.346-2.793-.291-1.077-.437-2.288-.437-3.634 0-2.871.639-5.058 1.918-6.561 1.278-1.503 3.107-2.254 5.484-2.254.763 0 1.526.09 2.288.269a4.913 4.913 0 0 1 2.053.942c.605.471 1.099 1.144 1.48 2.019.381.852.572 1.985.572 3.398 0 .74-.067 1.559-.202 2.456h-10.8c0 .987.101 1.862.303 2.625.201.762.515 1.413.942 1.951.426.516.975.92 1.648 1.212.696.269 1.537.403 2.524.403.762 0 1.525-.134 2.288-.403.762-.27 1.334-.584 1.716-.942l1.009 1.951zm-5.787-13.526c-1.324 0-2.389.348-3.197 1.043-.785.696-1.256 1.884-1.413 3.567h8.345c0-1.705-.326-2.894-.976-3.567-.651-.695-1.57-1.043-2.759-1.043zm7.699-1.951h2.624V5.864l2.692-.774v4.105h4.576v2.355h-4.576v9.32c0 1.166.146 1.996.437 2.49.292.471.785.706 1.481.706.583 0 1.076-.056 1.48-.168.404-.134.852-.303 1.346-.505l.606 2.053c-.606.291-1.268.527-1.986.706-.717.18-1.491.27-2.321.27-1.368 0-2.333-.382-2.894-1.144-.561-.785-.841-2.086-.841-3.903V11.55h-2.624V9.195zm24.869 15.477c-.673.538-1.526.965-2.558 1.279a10.814 10.814 0 0 1-3.23.471c-1.278 0-2.389-.202-3.331-.606-.942-.426-1.716-1.021-2.321-1.783-.606-.785-1.054-1.716-1.346-2.793-.292-1.077-.437-2.288-.437-3.634 0-2.871.639-5.058 1.917-6.561 1.279-1.503 3.107-2.254 5.485-2.254.762 0 1.525.09 2.288.269a4.915 4.915 0 0 1 2.052.942c.606.471 1.099 1.144 1.481 2.019.381.852.572 1.985.572 3.398 0 .74-.068 1.559-.202 2.456h-10.801c0 .987.101 1.862.303 2.625.202.762.516 1.413.942 1.951.426.516.976.92 1.649 1.212.695.269 1.536.403 2.523.403.763 0 1.526-.134 2.288-.403.763-.27 1.335-.584 1.716-.942l1.01 1.951zm-5.788-13.526c-1.323 0-2.389.348-3.196 1.043-.785.696-1.256 1.884-1.413 3.567h8.344c0-1.705-.325-2.894-.976-3.567-.65-.695-1.57-1.043-2.759-1.043zm8.978 13.324c0-.606.168-1.077.504-1.413.359-.359.83-.538 1.413-.538.606 0 1.088.179 1.447.538.359.336.539.807.539 1.413 0 .583-.18 1.054-.539 1.413-.359.359-.841.539-1.447.539-.583 0-1.054-.18-1.413-.539-.336-.359-.504-.83-.504-1.413zm8.003-15.275h2.692v17.731c0 2.086-.359 3.645-1.077 4.677-.718 1.032-1.862 1.548-3.432 1.548-.179 0-.348-.011-.505-.034-.157 0-.325-.011-.504-.033v-2.288c.628 0 1.121-.101 1.48-.303.381-.18.673-.471.875-.875.202-.404.325-.92.37-1.548.067-.605.101-1.323.101-2.153V9.195zm-.572-5.115c0-.516.168-.953.505-1.312a1.772 1.772 0 0 1 1.346-.572c.538 0 .998.191 1.379.572.381.359.572.796.572 1.312s-.191.942-.572 1.279a2.014 2.014 0 0 1-1.379.505c-.539 0-.987-.169-1.346-.505-.337-.337-.505-.763-.505-1.279zm15.733 17.362c0-.673-.202-1.2-.605-1.581-.404-.382-.909-.696-1.515-.943a16.295 16.295 0 0 0-1.951-.74 11.132 11.132 0 0 1-1.952-.908 5.362 5.362 0 0 1-1.48-1.447c-.404-.583-.606-1.368-.606-2.355 0-1.615.46-2.793 1.38-3.533.92-.763 2.198-1.144 3.836-1.144 1.211 0 2.22.112 3.028.336.83.202 1.547.449 2.153.741l-.639 2.22c-.516-.247-1.144-.46-1.884-.639a8.544 8.544 0 0 0-2.322-.303c-.987 0-1.716.168-2.187.505-.449.336-.673.92-.673 1.749 0 .584.202 1.043.606 1.38a7.56 7.56 0 0 0 1.48.875 46.87 46.87 0 0 0 1.952.74 7.953 7.953 0 0 1 1.951.976c.606.403 1.11.919 1.514 1.547.404.606.606 1.414.606 2.423 0 .718-.124 1.391-.37 2.019a3.948 3.948 0 0 1-1.077 1.615c-.493.448-1.11.796-1.85 1.043-.718.269-1.571.404-2.558.404-1.278 0-2.366-.124-3.263-.371-.898-.246-1.649-.538-2.255-.874l.808-2.288c.516.291 1.189.561 2.019.807.83.247 1.671.37 2.523.37.965 0 1.761-.19 2.389-.572.628-.381.942-1.065.942-2.052z"/><path fill="none" stroke="#ff7a7a" d="M3.071 10.44c.852-.516 1.839-.898 2.961-1.144a16.855 16.855 0 0 1 3.566-.371c1.167 0 2.098.157 2.793.471.718.315 1.256.729 1.615 1.245.381.494.628 1.043.74 1.649.135.606.202 1.211.202 1.817 0 1.346-.034 2.658-.101 3.937a69.569 69.569 0 0 0-.101 3.633c0 .83.034 1.615.101 2.356.067.74.191 1.424.37 2.052h-1.985l-.706-2.355h-.169a5.68 5.68 0 0 1-.774.942c-.291.292-.65.561-1.076.808-.426.224-.92.414-1.481.571-.56.158-1.2.236-1.917.236a5.966 5.966 0 0 1-2.019-.336 4.871 4.871 0 0 1-1.582-.943 4.887 4.887 0 0 1-1.076-1.514c-.247-.583-.37-1.245-.37-1.985 0-.987.201-1.805.605-2.456.404-.673.965-1.2 1.683-1.581.74-.404 1.615-.684 2.624-.841a19.83 19.83 0 0 1 3.398-.27h.909c.314 0 .628.023.942.068.067-.673.101-1.279.101-1.817 0-1.234-.247-2.098-.741-2.591-.493-.494-1.39-.74-2.691-.74-.382 0-.797.033-1.245.101-.426.045-.875.123-1.346.235-.449.09-.886.213-1.312.37a6.035 6.035 0 0 0-1.077.471l-.841-2.018zm4.778 13.492c.628 0 1.189-.079 1.682-.236.494-.179.92-.392 1.279-.639.359-.269.65-.561.874-.875.247-.314.427-.617.539-.908v-2.793c-.314-.022-.64-.034-.976-.034a13.474 13.474 0 0 0-.942-.033c-.695 0-1.38.045-2.053.134a5.888 5.888 0 0 0-1.749.438 3.007 3.007 0 0 0-1.211.875c-.292.358-.438.818-.438 1.379 0 .785.281 1.436.841 1.952.561.493 1.279.74 2.154.74zM21.782 9.195v9.589c0 .875.044 1.649.134 2.321.112.651.292 1.201.538 1.649a2.49 2.49 0 0 0 1.01.976c.426.224.964.336 1.615.336.605 0 1.144-.089 1.615-.269a4.265 4.265 0 0 0 1.245-.807c.381-.337.706-.718.976-1.144.291-.449.527-.92.706-1.413V9.195h2.692V21.24c0 .808.022 1.649.067 2.524.067.852.168 1.603.303 2.254h-1.851l-.673-2.658h-.168a6.686 6.686 0 0 1-2.086 2.187c-.875.583-1.985.875-3.331.875-.897 0-1.693-.113-2.389-.337a3.627 3.627 0 0 1-1.716-1.11c-.448-.539-.796-1.256-1.043-2.154-.224-.919-.336-2.074-.336-3.465V9.195h2.692zm12.821 0h2.624V5.864l2.692-.774v4.105h4.576v2.355h-4.576v9.32c0 1.166.146 1.996.437 2.49.292.471.786.706 1.481.706.583 0 1.077-.056 1.48-.168a21.2 21.2 0 0 0 1.346-.505l.606 2.053c-.606.291-1.268.527-1.985.706-.718.18-1.492.27-2.322.27-1.368 0-2.333-.382-2.894-1.144-.56-.785-.841-2.086-.841-3.903V11.55h-2.624V9.195zm11.646 8.411c0-2.848.628-5.024 1.884-6.527 1.279-1.526 3.107-2.288 5.484-2.288 1.256 0 2.344.213 3.264.639a5.732 5.732 0 0 1 2.322 1.783c.605.763 1.054 1.694 1.345 2.793.292 1.077.438 2.277.438 3.6 0 2.849-.639 5.036-1.918 6.561-1.256 1.503-3.073 2.255-5.451 2.255-1.256 0-2.355-.202-3.297-.606a6.208 6.208 0 0 1-2.288-1.783c-.606-.785-1.054-1.716-1.346-2.793-.291-1.099-.437-2.31-.437-3.634zm2.792 0c0 .853.079 1.671.236 2.456.179.786.449 1.47.807 2.053.359.583.83 1.054 1.414 1.413.583.359 1.289.538 2.119.538 3.051.023 4.576-2.131 4.576-6.46 0-.875-.089-1.705-.269-2.49-.157-.785-.415-1.469-.774-2.052a3.973 3.973 0 0 0-1.413-1.38c-.583-.358-1.29-.538-2.12-.538-3.05-.022-4.576 2.131-4.576 6.46zM79.9 25.042c-.673.516-1.526.875-2.557 1.077a17.153 17.153 0 0 1-3.298.303c-1.413 0-2.736-.236-3.97-.707a8.857 8.857 0 0 1-3.23-2.221c-.92-.987-1.649-2.243-2.187-3.768-.539-1.548-.808-3.376-.808-5.484 0-2.199.292-4.06.875-5.586.606-1.547 1.391-2.804 2.355-3.768.987-.987 2.086-1.705 3.298-2.154a10.592 10.592 0 0 1 3.701-.672c1.346 0 2.445.078 3.297.235.853.135 1.582.325 2.187.572l-.673 2.456c-1.076-.516-2.613-.774-4.609-.774-.92 0-1.828.169-2.726.505-.897.337-1.704.886-2.422 1.649-.696.762-1.256 1.761-1.683 2.994-.426 1.234-.639 2.748-.639 4.543 0 1.615.202 3.028.606 4.239.404 1.211.953 2.221 1.648 3.028a6.994 6.994 0 0 0 2.49 1.817 8.02 8.02 0 0 0 3.129.606c1.01 0 1.885-.101 2.625-.303.763-.202 1.402-.46 1.918-.774l.673 2.187zm1.081-7.436c0-2.848.628-5.024 1.884-6.527 1.279-1.526 3.107-2.288 5.484-2.288 1.256 0 2.344.213 3.264.639a5.732 5.732 0 0 1 2.322 1.783c.605.763 1.054 1.694 1.346 2.793.291 1.077.437 2.277.437 3.6 0 2.849-.639 5.036-1.918 6.561-1.256 1.503-3.073 2.255-5.451 2.255-1.256 0-2.355-.202-3.297-.606a6.208 6.208 0 0 1-2.288-1.783c-.606-.785-1.054-1.716-1.346-2.793-.291-1.099-.437-2.31-.437-3.634zm2.792 0c0 .853.079 1.671.236 2.456.179.786.449 1.47.807 2.053.359.583.83 1.054 1.414 1.413.583.359 1.289.538 2.119.538 3.051.023 4.576-2.131 4.576-6.46 0-.875-.089-1.705-.269-2.49-.157-.785-.415-1.469-.774-2.052a3.973 3.973 0 0 0-1.413-1.38c-.583-.358-1.29-.538-2.12-.538-3.05-.022-4.576 2.131-4.576 6.46zm25.375 8.412v-9.522c0-.897-.045-1.671-.135-2.322-.067-.673-.213-1.233-.437-1.682a2.24 2.24 0 0 0-.976-1.009c-.404-.225-.942-.337-1.615-.337-1.032 0-1.895.314-2.591.942-.673.628-1.144 1.413-1.413 2.355v11.575h-2.692V9.195h1.885l.504 2.052h.135a7.74 7.74 0 0 1 2.086-1.75c.807-.471 1.85-.706 3.129-.706 1.077 0 1.952.213 2.624.639.696.404 1.234 1.122 1.615 2.154a5.49 5.49 0 0 1 2.12-2.053c.92-.493 1.952-.74 3.096-.74.942 0 1.738.112 2.389.336.65.202 1.188.572 1.615 1.111.426.538.729 1.267.908 2.187.202.919.303 2.086.303 3.499v10.094h-2.692V15.89c0-.807-.045-1.503-.134-2.086-.068-.605-.225-1.099-.471-1.48a1.955 1.955 0 0 0-.976-.875c-.404-.202-.942-.303-1.615-.303-1.122 0-1.997.314-2.625.942-.628.628-1.076 1.526-1.346 2.692v11.238h-2.691zm16.773-16.823h1.851l.505 2.018h.134a5.055 5.055 0 0 1 1.985-1.783c.83-.426 1.772-.639 2.827-.639 2.243 0 3.914.662 5.013 1.985 1.099 1.323 1.649 3.488 1.649 6.494 0 1.413-.191 2.691-.572 3.835-.359 1.122-.875 2.075-1.548 2.86a6.814 6.814 0 0 1-2.456 1.817c-.942.427-1.997.64-3.163.64-.83 0-1.492-.056-1.985-.169a7.27 7.27 0 0 1-1.548-.504v6.998h-2.692V9.195zm6.797 1.951c-1.144 0-2.053.303-2.726.909-.65.583-1.11 1.48-1.379 2.691v8.345c.404.314.864.56 1.379.74.516.157 1.201.235 2.053.235 1.548 0 2.77-.572 3.667-1.716.92-1.166 1.38-2.871 1.38-5.114 0-.92-.079-1.749-.236-2.49-.157-.762-.415-1.402-.774-1.918a3.418 3.418 0 0 0-1.345-1.244c-.539-.292-1.212-.438-2.019-.438zm13.728 10.733c0 .785.135 1.346.404 1.683.269.336.65.504 1.144.504.291 0 .605-.022.942-.067a5.465 5.465 0 0 0 1.144-.303l.303 2.12c-.359.179-.864.325-1.514.437a9.464 9.464 0 0 1-1.649.169c-1.009 0-1.839-.281-2.49-.842-.65-.583-.976-1.559-.976-2.927V2.465h2.692v19.414zm18.438 2.793c-.673.538-1.525.965-2.557 1.279a10.814 10.814 0 0 1-3.23.471c-1.279 0-2.389-.202-3.331-.606a6.15 6.15 0 0 1-2.322-1.783c-.605-.785-1.054-1.716-1.346-2.793-.291-1.077-.437-2.288-.437-3.634 0-2.871.639-5.058 1.918-6.561 1.278-1.503 3.107-2.254 5.484-2.254.763 0 1.526.09 2.288.269a4.913 4.913 0 0 1 2.053.942c.605.471 1.099 1.144 1.48 2.019.381.852.572 1.985.572 3.398 0 .74-.067 1.559-.202 2.456h-10.8c0 .987.101 1.862.303 2.625.201.762.515 1.413.942 1.951.426.516.975.92 1.648 1.212.696.269 1.537.403 2.524.403.762 0 1.525-.134 2.288-.403.762-.27 1.334-.584 1.716-.942l1.009 1.951zm-5.787-13.526c-1.324 0-2.389.348-3.197 1.043-.785.696-1.256 1.884-1.413 3.567h8.345c0-1.705-.326-2.894-.976-3.567-.651-.695-1.57-1.043-2.759-1.043zm7.699-1.951h2.624V5.864l2.692-.774v4.105h4.576v2.355h-4.576v9.32c0 1.166.146 1.996.437 2.49.292.471.785.706 1.481.706.583 0 1.076-.056 1.48-.168.404-.134.852-.303 1.346-.505l.606 2.053c-.606.291-1.268.527-1.986.706-.717.18-1.491.27-2.321.27-1.368 0-2.333-.382-2.894-1.144-.561-.785-.841-2.086-.841-3.903V11.55h-2.624V9.195zm24.869 15.477c-.673.538-1.526.965-2.558 1.279a10.814 10.814 0 0 1-3.23.471c-1.278 0-2.389-.202-3.331-.606-.942-.426-1.716-1.021-2.321-1.783-.606-.785-1.054-1.716-1.346-2.793-.292-1.077-.437-2.288-.437-3.634 0-2.871.639-5.058 1.917-6.561 1.279-1.503 3.107-2.254 5.485-2.254.762 0 1.525.09 2.288.269a4.915 4.915 0 0 1 2.052.942c.606.471 1.099 1.144 1.481 2.019.381.852.572 1.985.572 3.398 0 .74-.068 1.559-.202 2.456h-10.801c0 .987.101 1.862.303 2.625.202.762.516 1.413.942 1.951.426.516.976.92 1.649 1.212.695.269 1.536.403 2.523.403.763 0 1.526-.134 2.288-.403.763-.27 1.335-.584 1.716-.942l1.01 1.951zm-5.788-13.526c-1.323 0-2.389.348-3.196 1.043-.785.696-1.256 1.884-1.413 3.567h8.344c0-1.705-.325-2.894-.976-3.567-.65-.695-1.57-1.043-2.759-1.043zm8.978 13.324c0-.606.168-1.077.504-1.413.359-.359.83-.538 1.413-.538.606 0 1.088.179 1.447.538.359.336.539.807.539 1.413 0 .583-.18 1.054-.539 1.413-.359.359-.841.539-1.447.539-.583 0-1.054-.18-1.413-.539-.336-.359-.504-.83-.504-1.413zm8.003-15.275h2.692v17.731c0 2.086-.359 3.645-1.077 4.677-.718 1.032-1.862 1.548-3.432 1.548-.179 0-.348-.011-.505-.034-.157 0-.325-.011-.504-.033v-2.288c.628 0 1.121-.101 1.48-.303.381-.18.673-.471.875-.875.202-.404.325-.92.37-1.548.067-.605.101-1.323.101-2.153V9.195zm-.572-5.115c0-.516.168-.953.505-1.312a1.772 1.772 0 0 1 1.346-.572c.538 0 .998.191 1.379.572.381.359.572.796.572 1.312s-.191.942-.572 1.279a2.014 2.014 0 0 1-1.379.505c-.539 0-.987-.169-1.346-.505-.337-.337-.505-.763-.505-1.279zm15.733 17.362c0-.673-.202-1.2-.605-1.581-.404-.382-.909-.696-1.515-.943a16.295 16.295 0 0 0-1.951-.74 11.132 11.132 0 0 1-1.952-.908 5.362 5.362 0 0 1-1.48-1.447c-.404-.583-.606-1.368-.606-2.355 0-1.615.46-2.793 1.38-3.533.92-.763 2.198-1.144 3.836-1.144 1.211 0 2.22.112 3.028.336.83.202 1.547.449 2.153.741l-.639 2.22c-.516-.247-1.144-.46-1.884-.639a8.544 8.544 0 0 0-2.322-.303c-.987 0-1.716.168-2.187.505-.449.336-.673.92-.673 1.749 0 .584.202 1.043.606 1.38a7.56 7.56 0 0 0 1.48.875 46.87 46.87 0 0 0 1.952.74 7.953 7.953 0 0 1 1.951.976c.606.403 1.11.919 1.514 1.547.404.606.606 1.414.606 2.423 0 .718-.124 1.391-.37 2.019a3.948 3.948 0 0 1-1.077 1.615c-.493.448-1.11.796-1.85 1.043-.718.269-1.571.404-2.558.404-1.278 0-2.366-.124-3.263-.371-.898-.246-1.649-.538-2.255-.874l.808-2.288c.516.291 1.189.561 2.019.807.83.247 1.671.37 2.523.37.965 0 1.761-.19 2.389-.572.628-.381.942-1.065.942-2.052z"/></svg>